<svg xmlns="http://www.w3.org/2000/svg" width="24" height="24" viewBox="0 0 24 24" fill="none" stroke="currentColor" stroke-width="2" stroke-linecap="round" stroke-linejoin="round">
  <path d="M7.0498 7.0498h.01" />
  <path d="M10.5118 3H7.8C6.1198 3 5.2798 3 4.638 3.327 4.0735 3.6146 3.6146 4.0735 3.327 4.638 3 5.2798 3 6.1198 3 7.8v2.7118c0 .7337 0 1.1006.0829 1.4459.0735.3061.1947.5987.3592.8672.1855.3027.4449.5621.9638 1.081l4.7 4.7c1.188 1.188 1.7821 1.7821 2.467 2.0046.6026.1958 1.2516.1958 1.8542 0 .6849-.2225 1.279-.8166 2.467-2.0046l2.7118-2.7118c1.188-1.188 1.7821-1.7821 2.0046-2.467.1958-.6026.1958-1.2516 0-1.8542-.2225-.6849-.8166-1.279-2.0046-2.467l-4.7-4.7c-.5189-.5189-.7783-.7783-1.081-.9638-.2685-.1645-.5611-.2857-.8672-.3592C11.6124 3 11.2455 3 10.5118 3Z" />
  <path d="M7.5498 7.0498a.5.5 0 1 1-1 0 .5.5 0 0 1 1 0Z" />
</svg>
