<?xml version="1.0" encoding="UTF-8"?>
<!DOCTYPE svg PUBLIC "-//W3C//DTD SVG 1.1//EN" "http://www.w3.org/Graphics/SVG/1.1/DTD/svg11.dtd">
<svg xmlns="http://www.w3.org/2000/svg" version="1.1" width="1254px" height="1254px" style="shape-rendering:geometricPrecision; text-rendering:geometricPrecision; image-rendering:optimizeQuality; fill-rule:evenodd; clip-rule:evenodd" xmlns:xlink="http://www.w3.org/1999/xlink">
<g><path style="opacity:1" fill="#F4F0E8" d="M -0.5,-0.5 C 417.5,-0.5 835.5,-0.5 1253.5,-0.5C 1253.5,417.5 1253.5,835.5 1253.5,1253.5C 835.5,1253.5 417.5,1253.5 -0.5,1253.5C -0.5,835.5 -0.5,417.5 -0.5,-0.5 Z"/></g>
<g><path style="opacity:1" fill="#000000" d="M 687.5,123.5 C 688.403,125.636 689.569,127.636 691,129.5C 691.02,125.019 690.52,120.685 689.5,116.5C 688.697,108.139 687.697,99.8059 686.5,91.5C 686.624,85.9313 685.957,80.598 684.5,75.5C 684.168,71.5067 683.835,67.5067 683.5,63.5C 683.833,61.5 684.167,59.5 684.5,57.5C 701.919,86.6691 719.086,116.002 736,145.5C 736.667,142.167 736.667,138.833 736,135.5C 733.25,119.25 731.084,102.917 729.5,86.5C 729.833,85.1667 730.167,83.8333 730.5,82.5C 730.833,82.6667 731.167,82.8333 731.5,83C 742.914,105.661 753.914,128.495 764.5,151.5C 769.712,163.305 775.212,174.972 781,186.5C 779.794,173.595 777.627,160.928 774.5,148.5C 773.633,141.493 772.633,134.493 771.5,127.5C 771.833,126.167 772.167,124.833 772.5,123.5C 787.77,157.707 802.77,192.041 817.5,226.5C 817.987,227.473 818.487,228.473 819,229.5C 819.801,226.633 819.634,223.966 818.5,221.5C 816.806,204.676 815.14,187.843 813.5,171C 813.833,168.833 814.167,166.667 814.5,164.5C 829.747,201.003 845.58,237.337 862,273.5C 860.569,261.332 858.736,249.165 856.5,237C 856.667,235.833 856.833,234.667 857,233.5C 868.991,262.799 880.991,292.133 893,321.5C 893.667,331.167 893.667,340.833 893,350.5C 890.829,376.207 888.329,401.873 885.5,427.5C 884.028,431.919 883.362,436.586 883.5,441.5C 879.662,468.207 875.829,494.874 872,521.5C 879.328,513.669 888.328,509.002 899,507.5C 902.012,507.726 904.845,508.559 907.5,510C 917.907,519.98 923.574,532.146 924.5,546.5C 920.116,580.817 909.616,613.151 893,643.5C 889.535,647.967 885.702,652.133 881.5,656C 872.684,663.573 863.684,670.906 854.5,678C 847.802,683.51 840.136,686.343 831.5,686.5C 828.5,705.336 824.666,724.002 820,742.5C 810.428,756.076 800.094,769.076 789,781.5C 788.5,795.829 788.333,810.163 788.5,824.5C 804.503,824.333 820.503,824.5 836.5,825C 844.921,825.289 853.254,826.289 861.5,828C 912.226,847.528 961.893,869.528 1010.5,894C 1015.33,896.167 1018.83,899.667 1021,904.5C 1023.91,924.765 1026.24,945.098 1028,965.5C 1044.33,972.246 1060.49,979.413 1076.5,987C 1103.87,1004.04 1123.7,1027.54 1136,1057.5C 1139.46,1067.11 1142.29,1076.95 1144.5,1087C 1144.17,1088.17 1143.83,1089.33 1143.5,1090.5C 1136.35,1076.2 1129.18,1061.86 1122,1047.5C 1112.99,1031.33 1101.49,1017.16 1087.5,1005C 1079.84,999.499 1071.84,994.499 1063.5,990C 1036.42,979.305 1009.75,967.639 983.5,955C 981.74,954.035 981.406,952.868 982.5,951.5C 994.776,955.37 1007.11,959.037 1019.5,962.5C 1017.53,945.522 1015.69,928.522 1014,911.5C 1013.79,907.562 1011.95,904.728 1008.5,903C 961.212,879.688 913.212,858.021 864.5,838C 856.387,835.299 848.054,833.966 839.5,834C 822.518,832.864 805.518,832.364 788.5,832.5C 788.5,850.5 788.5,868.5 788.5,886.5C 801.519,886.465 814.519,886.965 827.5,888C 854.241,901.747 880.741,915.914 907,930.5C 914.732,925.381 922.565,920.381 930.5,915.5C 930.833,915.833 931.167,916.167 931.5,916.5C 924.251,923.793 916.584,930.626 908.5,937C 818.741,1008.76 728.407,1079.76 637.5,1150C 636.16,1165.76 634.994,1181.6 634,1197.5C 633.586,1197.96 633.086,1198.29 632.5,1198.5C 631.039,1192.94 630.206,1187.27 630,1181.5C 629.667,1171.17 629.333,1160.83 629,1150.5C 605.5,1131.67 582,1112.83 558.5,1094C 480.472,1034.65 402.806,974.818 325.5,914.5C 325.833,914.167 326.167,913.833 326.5,913.5C 334.229,917.448 341.729,921.781 349,926.5C 374.405,912.88 399.905,899.38 425.5,886C 442.097,884.49 458.764,883.657 475.5,883.5C 476.129,864.84 476.463,846.173 476.5,827.5C 457.164,827.333 437.83,827.5 418.5,828C 411.706,828.223 405.039,829.223 398.5,831C 348.131,852.518 298.798,876.185 250.5,902C 248.032,904.228 246.865,907.062 247,910.5C 245.64,927.187 244.14,943.854 242.5,960.5C 253.716,956.854 265.05,953.188 276.5,949.5C 277.521,950.002 277.688,950.668 277,951.5C 264.705,958.398 252.205,964.898 239.5,971C 217.774,978.528 197.774,989.195 179.5,1003C 164.982,1016.51 153.149,1032.01 144,1049.5C 137.723,1062.39 131.223,1075.06 124.5,1087.5C 124.167,1086.5 123.833,1085.5 123.5,1084.5C 137.455,1024.21 173.788,984.21 232.5,964.5C 235.379,944.965 237.546,925.298 239,905.5C 239.508,900.988 241.675,897.488 245.5,895C 289.755,870.539 335.089,848.206 381.5,828C 395.438,821.432 410.105,818.599 425.5,819.5C 442.833,819.5 460.167,819.5 477.5,819.5C 477.829,806.989 477.495,794.655 476.5,782.5C 465.106,770.267 454.606,757.267 445,743.5C 440.21,724.719 436.377,705.719 433.5,686.5C 426.799,686.318 420.799,684.151 415.5,680C 401.06,669.226 387.56,657.393 375,644.5C 359.183,613.216 348.683,580.216 343.5,545.5C 345.745,531.175 352.079,519.009 362.5,509C 375.198,507.32 386.031,511.154 395,520.5C 387.321,458.045 381.155,395.378 376.5,332.5C 376.783,328.804 377.283,325.137 378,321.5C 394.675,284.132 411.341,246.799 428,209.5C 428.167,210.333 428.333,211.167 428.5,212C 425.077,228.178 421.911,244.345 419,260.5C 438.729,221.375 458.729,182.375 479,143.5C 479.667,142.833 480.333,142.167 481,141.5C 481.667,143.5 481.667,145.5 481,147.5C 475.678,168.111 471.012,188.778 467,209.5C 488.68,179.496 507.846,147.829 524.5,114.5C 524.833,115.333 525.167,116.167 525.5,117C 522.636,133.501 520.136,150.001 518,166.5C 536.169,138.163 551.169,108.163 563,76.5C 563.333,76.1667 563.667,75.8333 564,75.5C 564.735,93.2312 564.401,110.898 563,128.5C 569.232,113.275 575.732,98.2753 582.5,83.5C 581.038,96.8875 579.538,110.221 578,123.5C 581.288,119.256 583.788,114.59 585.5,109.5C 593.109,93.264 599.943,76.5974 606,59.5C 606.333,59.1667 606.667,58.8333 607,58.5C 607.167,60.8333 607.333,63.1667 607.5,65.5C 606.55,75.2028 605.717,84.8695 605,94.5C 616.253,74.9949 627.253,55.3282 638,35.5C 639.667,32.8333 641.333,32.8333 643,35.5C 656.537,65.5757 671.371,94.9091 687.5,123.5 Z"/></g>
<g><path style="opacity:1" fill="#F4F0E8" d="M 684.5,75.5 C 685.957,80.598 686.624,85.9313 686.5,91.5C 685.194,86.3839 684.527,81.0506 684.5,75.5 Z"/></g>
<g><path style="opacity:1" fill="#F4F0E8" d="M 582.5,83.5 C 583.325,87.4896 584.658,90.9896 586.5,94C 585.024,97.1174 583.691,100.284 582.5,103.5C 582.709,106.629 583.709,108.629 585.5,109.5C 583.788,114.59 581.288,119.256 578,123.5C 579.538,110.221 581.038,96.8875 582.5,83.5 Z"/></g>
<g><path style="opacity:1" fill="#F4F0E8" d="M 689.5,116.5 C 690.52,120.685 691.02,125.019 691,129.5C 689.569,127.636 688.403,125.636 687.5,123.5C 689.344,121.721 690.01,119.388 689.5,116.5 Z"/></g>
<g><path style="opacity:1" fill="#F4F0E8" d="M 774.5,148.5 C 777.627,160.928 779.794,173.595 781,186.5C 775.212,174.972 769.712,163.305 764.5,151.5C 765.552,151.351 766.552,151.517 767.5,152C 768.594,153.78 769.594,155.614 770.5,157.5C 771.624,155.631 772.457,153.631 773,151.5C 773.333,152.833 773.667,154.167 774,155.5C 774.497,153.19 774.663,150.857 774.5,148.5 Z"/></g>
<g><path style="opacity:1" fill="#000000" d="M 818.5,221.5 C 819.634,223.966 819.801,226.633 819,229.5C 818.487,228.473 817.987,227.473 817.5,226.5C 818.451,225.081 818.784,223.415 818.5,221.5 Z"/></g>
<g><path style="opacity:1" fill="#F4F0E8" d="M 613.5,874.5 C 612.432,873.566 611.099,873.232 609.5,873.5C 609.5,872.5 609.5,871.5 609.5,870.5C 610.025,865.989 610.692,861.489 611.5,857C 611.167,856.167 610.833,855.333 610.5,854.5C 606.923,860.235 604.923,866.569 604.5,873.5C 599.156,873.666 593.823,873.499 588.5,873C 587.376,872.751 586.376,872.251 585.5,871.5C 588.498,863.512 591.498,855.512 594.5,847.5C 594.192,846.692 593.692,846.025 593,845.5C 588.053,853.059 583.886,861.059 580.5,869.5C 574.624,870.035 569.957,867.702 566.5,862.5C 571.595,855.563 576.095,848.23 580,840.5C 580.667,839.167 580.667,837.833 580,836.5C 573.923,843.409 568.423,850.742 563.5,858.5C 562.998,859.521 562.332,859.688 561.5,859C 559.316,856.984 557.316,854.817 555.5,852.5C 558.772,848.782 561.272,844.782 563,840.5C 562.282,839.549 561.449,839.383 560.5,840C 557.833,843 555.167,846 552.5,849C 551.833,849.667 551.167,849.667 550.5,849C 515.783,814.961 483.283,779.127 453,741.5C 448.777,727.387 445.444,713.054 443,698.5C 431.203,635.085 421.036,571.418 412.5,507.5C 413.444,492.173 414.277,476.839 415,461.5C 421,452.833 427,444.167 433,435.5C 431.668,419.148 429.668,402.814 427,386.5C 426.199,380.835 425.866,375.168 426,369.5C 434.817,351.531 443.817,333.864 453,316.5C 475.739,324.973 498.239,333.973 520.5,343.5C 519.286,337.522 517.286,331.855 514.5,326.5C 514.833,326.167 515.167,325.833 515.5,325.5C 527.708,332.104 540.041,338.437 552.5,344.5C 552.833,344 553.167,343.5 553.5,343C 551.564,336.968 549.23,331.134 546.5,325.5C 546.833,325.167 547.167,324.833 547.5,324.5C 574.571,337.368 601.904,349.701 629.5,361.5C 654.586,349.791 679.586,337.791 704.5,325.5C 701.086,333.29 696.753,340.956 691.5,348.5C 692,348.833 692.5,349.167 693,349.5C 708.739,342.383 724.572,335.383 740.5,328.5C 741.167,328.667 741.833,328.833 742.5,329C 737.971,335.364 733.637,341.864 729.5,348.5C 756.998,337.948 784.665,326.948 812.5,315.5C 821.834,334.004 830.501,352.837 838.5,372C 834.446,393.368 831.613,414.868 830,436.5C 836.667,444.5 843.333,452.5 850,460.5C 850.503,472.875 851.503,485.208 853,497.5C 853.667,503.833 853.667,510.167 853,516.5C 843.45,590.466 830.45,663.8 814,736.5C 813.194,739.446 811.861,742.112 810,744.5C 780.041,781.136 747.874,815.969 713.5,849C 712.5,849.667 711.5,849.667 710.5,849C 707.318,845.651 703.985,842.484 700.5,839.5C 699.432,841.187 699.599,842.854 701,844.5C 703.128,847.63 705.628,850.463 708.5,853C 706.833,855.333 704.833,857.333 702.5,859C 700.613,859.163 699.113,858.329 698,856.5C 693.711,849.716 688.877,843.383 683.5,837.5C 681.899,838.035 681.399,839.035 682,840.5C 686.833,848.167 691.667,855.833 696.5,863.5C 693.402,867.717 689.402,869.717 684.5,869.5C 682,863.833 679.5,858.167 677,852.5C 675.732,850.283 674.232,848.283 672.5,846.5C 672.167,847 671.833,847.5 671.5,848C 674.664,855.992 677.331,864.159 679.5,872.5C 674.154,873.533 668.82,873.533 663.5,872.5C 661.515,866.898 659.682,861.231 658,855.5C 657.586,855.043 657.086,854.709 656.5,854.5C 656.167,855.833 655.833,857.167 655.5,858.5C 656.502,863.842 657.502,869.175 658.5,874.5C 643.5,874.5 628.5,874.5 613.5,874.5 Z"/></g>
<g><path style="opacity:1" fill="#F4F0E8" d="M 885.5,427.5 C 885.638,432.414 884.972,437.081 883.5,441.5C 883.362,436.586 884.028,431.919 885.5,427.5 Z"/></g>
<g><path style="opacity:1" fill="#000000" d="M 488.5,465.5 C 496.262,466.857 503.928,468.69 511.5,471C 532.69,478.063 554.023,484.73 575.5,491C 579.878,497.612 583.211,504.779 585.5,512.5C 584.5,512.833 583.5,513.167 582.5,513.5C 545.18,506.891 507.847,500.391 470.5,494C 462.479,493.832 454.479,493.332 446.5,492.5C 460.189,482.991 474.189,473.991 488.5,465.5 Z"/></g>
<g><path style="opacity:1" fill="#000000" d="M 729.5,505.5 C 721.878,505.991 714.545,507.324 707.5,509.5C 699.476,510.615 691.476,511.949 683.5,513.5C 682.5,513.167 681.5,512.833 680.5,512.5C 682.635,504.917 685.635,497.75 689.5,491C 716.522,482.659 743.522,474.326 770.5,466C 774.909,465.195 778.909,466.195 782.5,469C 794.928,476.277 806.928,484.11 818.5,492.5C 806.814,493.167 795.147,494 783.5,495C 765.308,498.25 747.308,501.75 729.5,505.5 Z"/></g>
<g><path style="opacity:1" fill="#F4F0E8" d="M 729.5,505.5 C 725.826,506.706 722.326,508.372 719,510.5C 715.27,509.54 711.437,509.207 707.5,509.5C 714.545,507.324 721.878,505.991 729.5,505.5 Z"/></g>
<g><path style="opacity:1" fill="#F4F0E8" d="M 896.5,513.5 C 901.462,513.322 905.295,515.322 908,519.5C 918.852,533.312 921.519,548.645 916,565.5C 909.671,592.149 900.004,617.482 887,641.5C 872.946,655.897 857.446,668.397 840.5,679C 838.26,679.977 835.927,680.477 833.5,680.5C 835.47,667.814 837.637,655.147 840,642.5C 851.083,606.244 860.75,569.577 869,532.5C 873.133,529.369 876.966,525.869 880.5,522C 885.483,518.344 890.816,515.511 896.5,513.5 Z"/></g>
<g><path style="opacity:1" fill="#F4F0E8" d="M 365.5,514.5 C 369.605,514.234 373.605,514.734 377.5,516C 385.184,520.014 392.017,525.181 398,531.5C 407.196,569.952 416.863,608.286 427,646.5C 428.943,657.822 430.776,669.155 432.5,680.5C 426.551,679.36 421.218,676.86 416.5,673C 402.882,663.104 390.382,651.937 379,639.5C 364.143,609.929 354.31,578.763 349.5,546C 351.78,533.939 357.114,523.439 365.5,514.5 Z"/></g>
<g><path style="opacity:1" fill="#000000" d="M 699.5,540.5 C 726.564,540.026 753.564,540.526 780.5,542C 786.61,547.418 790.777,553.918 793,561.5C 792.261,562.574 791.261,563.241 790,563.5C 787.702,562.039 785.535,560.372 783.5,558.5C 778.587,569.88 769.92,574.38 757.5,572C 746.825,567.821 741.825,559.987 742.5,548.5C 729.496,548.333 716.496,548.5 703.5,549C 698.517,553.914 693.517,558.914 688.5,564C 687.552,564.483 686.552,564.649 685.5,564.5C 685.248,561.68 685.748,559.014 687,556.5C 690.298,550.383 694.465,545.049 699.5,540.5 Z"/></g>
<g><path style="opacity:1" fill="#000000" d="M 486.5,540.5 C 512.551,540.037 538.551,540.537 564.5,542C 572.09,547.68 576.757,555.18 578.5,564.5C 575.215,564.731 572.715,563.397 571,560.5C 564.888,571.629 555.721,575.129 543.5,571C 534.665,566.17 530.332,558.67 530.5,548.5C 517.163,548.333 503.829,548.5 490.5,549C 485.5,552.667 481.167,557 477.5,562C 474.886,564.338 472.886,564.005 471.5,561C 474.94,552.924 479.94,546.091 486.5,540.5 Z"/></g>
<g><path style="opacity:1" fill="#F4F0E8" d="M 765.5,548.5 C 771.313,548.062 772.98,550.562 770.5,556C 764.593,556.746 762.927,554.246 765.5,548.5 Z"/></g>
<g><path style="opacity:1" fill="#F4F0E8" d="M 552.5,549.5 C 558.465,548.928 560.131,551.095 557.5,556C 552.262,556.594 550.595,554.427 552.5,549.5 Z"/></g>
<g><path style="opacity:1" fill="#000000" d="M 898.5,540.5 C 900.288,540.215 901.955,540.548 903.5,541.5C 899.182,546.319 894.682,550.985 890,555.5C 886.319,560.201 883.152,565.201 880.5,570.5C 884.067,582.018 884.9,593.684 883,605.5C 876.321,616.179 867.654,624.846 857,631.5C 855.457,630.423 855.457,629.089 857,627.5C 861.667,621.5 867,616.167 873,611.5C 876.06,608.048 878.06,604.048 879,599.5C 879.607,590.959 878.607,582.626 876,574.5C 873.824,576.875 871.657,579.208 869.5,581.5C 868.417,580.635 868.251,579.635 869,578.5C 875.351,563 885.184,550.333 898.5,540.5 Z"/></g>
<g><path style="opacity:1" fill="#000000" d="M 488.5,576.5 C 514.143,577.297 539.81,577.797 565.5,578C 564.672,578.915 563.672,579.581 562.5,580C 540.53,581.574 518.53,581.908 496.5,581C 494.129,580.265 491.795,579.432 489.5,578.5C 488.702,578.043 488.369,577.376 488.5,576.5 Z"/></g>
<g><path style="opacity:1" fill="#000000" d="M 772.5,576.5 C 773.873,576.343 775.207,576.51 776.5,577C 773.795,579.792 770.462,581.126 766.5,581C 746.833,581.667 727.167,581.667 707.5,581C 705.105,580.319 702.772,579.485 700.5,578.5C 724.663,577.833 748.663,577.167 772.5,576.5 Z"/></g>
<g><path style="opacity:1" fill="#000000" d="M 364.5,540.5 C 371.613,541.981 377.446,545.648 382,551.5C 388.082,559.325 393.415,567.658 398,576.5C 398.781,577.944 398.614,579.277 397.5,580.5C 395.343,578.208 393.176,575.875 391,573.5C 388.81,583.064 388.143,592.731 389,602.5C 394.212,610.718 400.545,618.052 408,624.5C 409.076,626.067 409.909,627.734 410.5,629.5C 410.167,630.167 409.833,630.833 409.5,631.5C 398.347,624.517 389.847,615.184 384,603.5C 383.833,600.5 383.667,597.5 383.5,594.5C 384.748,585.519 385.582,576.519 386,567.5C 383,563.167 380,558.833 377,554.5C 372.62,549.924 368.453,545.257 364.5,540.5 Z"/></g>
<g><path style="opacity:1" fill="#000000" d="M 605.5,562.5 C 607.411,562.574 608.578,563.574 609,565.5C 613.433,589.936 610.766,613.603 601,636.5C 594.898,644.704 590.398,653.704 587.5,663.5C 587.294,668.212 588.961,672.046 592.5,675C 593.833,675.667 595.167,675.667 596.5,675C 604.84,669.816 612.34,670.983 619,678.5C 620.009,680.025 620.509,681.692 620.5,683.5C 616.938,683.035 613.605,681.868 610.5,680C 607.833,679.333 605.167,679.333 602.5,680C 605.534,681.191 607.201,683.358 607.5,686.5C 595.026,687.203 585.859,682.203 580,671.5C 579.161,666.079 579.494,660.746 581,655.5C 586.921,645.327 592.587,634.994 598,624.5C 605.266,604.401 607.766,583.735 605.5,562.5 Z"/></g>
<g><path style="opacity:1" fill="#000000" d="M 652.5,671.5 C 658.932,670.347 664.432,672.014 669,676.5C 669.494,678.134 669.66,679.801 669.5,681.5C 665.51,680.837 661.51,680.17 657.5,679.5C 653.06,680.027 648.726,681.027 644.5,682.5C 643.833,682.167 643.167,681.833 642.5,681.5C 644.882,677.118 648.216,673.784 652.5,671.5 Z"/></g>
<g><path style="opacity:1" fill="#000000" d="M 643.5,701.5 C 646.808,700.974 648.974,702.307 650,705.5C 652.254,709.007 654.254,712.673 656,716.5C 656.667,720.167 655.333,721.167 652,719.5C 648.346,713.861 645.513,707.861 643.5,701.5 Z"/></g>
<g><path style="opacity:1" fill="#000000" d="M 597.5,703.5 C 598.833,703.5 600.167,703.5 601.5,703.5C 600.177,709.341 597.677,714.675 594,719.5C 592.736,721.607 590.903,722.607 588.5,722.5C 588.343,721.127 588.51,719.793 589,718.5C 591.857,713.445 594.691,708.445 597.5,703.5 Z"/></g>
<g><path style="opacity:1" fill="#000000" d="M 661.5,704.5 C 663.903,704.393 665.736,705.393 667,707.5C 669.333,711.5 671.667,715.5 674,719.5C 674.49,720.793 674.657,722.127 674.5,723.5C 671.737,723.256 669.571,721.923 668,719.5C 665.5,715.167 663,710.833 660.5,706.5C 660.863,705.817 661.196,705.15 661.5,704.5 Z"/></g>
<g><path style="opacity:1" fill="#000000" d="M 614.5,701.5 C 615.833,701.5 617.167,701.5 618.5,701.5C 616.226,707.381 613.393,713.048 610,718.5C 608.644,719.38 607.144,719.714 605.5,719.5C 607.419,712.996 610.419,706.996 614.5,701.5 Z"/></g>
<g><path style="opacity:1" fill="#000000" d="M 581.5,707.5 C 585.536,707.572 586.37,709.239 584,712.5C 580.622,717.422 577.122,722.255 573.5,727C 572.552,727.483 571.552,727.649 570.5,727.5C 573.098,720.31 576.764,713.643 581.5,707.5 Z"/></g>
<g><path style="opacity:1" fill="#000000" d="M 678.5,708.5 C 680.144,708.286 681.644,708.62 683,709.5C 686,714.167 689,718.833 692,723.5C 692.49,724.793 692.657,726.127 692.5,727.5C 690.278,727.822 688.444,727.155 687,725.5C 684,720.833 681,716.167 678,711.5C 677.53,710.423 677.697,709.423 678.5,708.5 Z"/></g>
<g><path style="opacity:1" fill="#000000" d="M 695.5,712.5 C 697.722,712.178 699.556,712.845 701,714.5C 704.869,719.845 708.035,725.512 710.5,731.5C 707.675,731.919 705.509,730.919 704,728.5C 701.333,724.5 698.667,720.5 696,716.5C 695.51,715.207 695.343,713.873 695.5,712.5 Z"/></g>
<g><path style="opacity:1" fill="#000000" d="M 564.5,711.5 C 565.5,711.5 566.5,711.5 567.5,711.5C 566.78,716.277 564.947,720.61 562,724.5C 560.321,727.513 557.987,729.846 555,731.5C 553.72,731.387 552.887,730.72 552.5,729.5C 556.134,723.21 560.134,717.21 564.5,711.5 Z"/></g>
<g><path style="opacity:1" fill="#000000" d="M 546.5,716.5 C 550.536,716.572 551.37,718.239 549,721.5C 546.112,726.776 542.612,731.609 538.5,736C 537.552,736.483 536.552,736.649 535.5,736.5C 535.372,734.345 535.872,732.345 537,730.5C 539.929,725.631 543.096,720.965 546.5,716.5 Z"/></g>
<g><path style="opacity:1" fill="#000000" d="M 712.5,717.5 C 715.044,717.104 717.211,717.771 719,719.5C 722,723.833 725,728.167 728,732.5C 728.045,736.824 726.379,737.49 723,734.5C 719.248,728.931 715.748,723.264 712.5,717.5 Z"/></g>
<g><path style="opacity:1" fill="#000000" d="M 683.5,749.5 C 689.288,750.81 695.288,751.477 701.5,751.5C 702.209,752.404 703.209,752.737 704.5,752.5C 704.703,754.39 704.037,755.89 702.5,757C 687.761,757.463 673.094,756.63 658.5,754.5C 648.617,755.429 638.783,756.762 629,758.5C 624.401,758.226 619.901,757.392 615.5,756C 610.833,755.833 606.167,755.667 601.5,755.5C 588.151,756.139 574.818,756.639 561.5,757C 558.833,755.333 558.833,753.667 561.5,752C 576.029,750.225 590.529,748.392 605,746.5C 612.787,747.824 620.621,748.824 628.5,749.5C 637.536,748.78 646.536,747.78 655.5,746.5C 664.864,747.337 674.197,748.337 683.5,749.5 Z"/></g>
<g><path style="opacity:1" fill="#F4F0E8" d="M 683.5,749.5 C 689.726,749.388 695.726,750.054 701.5,751.5C 695.288,751.477 689.288,750.81 683.5,749.5 Z"/></g>
<g><path style="opacity:1" fill="#000000" d="M 605.5,785.5 C 622.837,785.333 640.17,785.5 657.5,786C 657.957,786.414 658.291,786.914 658.5,787.5C 656.383,789.831 653.716,790.997 650.5,791C 637.507,792.947 624.507,792.947 611.5,791C 607.874,790.722 605.874,788.888 605.5,785.5 Z"/></g>
<g><path style="opacity:1" fill="#F4F0E8" d="M 778.5,793.5 C 779.487,798.305 779.821,803.305 779.5,808.5C 779.241,836.181 779.741,863.848 781,891.5C 781.866,903.659 783.699,915.659 786.5,927.5C 787.5,927.5 788.5,927.5 789.5,927.5C 789.169,920.137 789.503,912.803 790.5,905.5C 824.648,916.771 858.648,928.438 892.5,940.5C 805.891,1008.72 719.391,1077.05 633,1145.5C 545.442,1074.27 456.442,1004.94 366,937.5C 365.409,936.517 365.743,935.85 367,935.5C 385.122,929.929 403.289,924.596 421.5,919.5C 426.165,918.943 430.498,917.61 434.5,915.5C 446.582,911.253 458.915,907.586 471.5,904.5C 473.152,911.61 474.152,918.943 474.5,926.5C 475.209,927.404 476.209,927.737 477.5,927.5C 479.751,919.662 481.251,911.662 482,903.5C 483.099,888.178 483.933,872.845 484.5,857.5C 485.167,836.5 485.833,815.5 486.5,794.5C 505.091,817.602 523.924,840.602 543,863.5C 553.192,874.691 563.692,885.524 574.5,896C 579.836,900 585.836,902.333 592.5,903C 620.88,906.552 649.213,906.219 677.5,902C 682.446,900.194 687.112,897.861 691.5,895C 722.207,862.472 751.207,828.639 778.5,793.5 Z"/></g>
<g><path style="opacity:1" fill="#F4F0E8" d="M 778.5,793.5 C 778.56,792.957 778.893,792.624 779.5,792.5C 780.815,797.986 780.815,803.32 779.5,808.5C 779.821,803.305 779.487,798.305 778.5,793.5 Z"/></g>
<g><path style="opacity:1" fill="#000000" d="M 476.5,782.5 C 477.495,794.655 477.829,806.989 477.5,819.5C 460.167,819.5 442.833,819.5 425.5,819.5C 442.325,818.503 459.325,818.17 476.5,818.5C 476.5,806.5 476.5,794.5 476.5,782.5 Z"/></g>
<g><path style="opacity:1" fill="#F4F0E8" d="M 486.5,794.5 C 485.833,815.5 485.167,836.5 484.5,857.5C 484.333,835.831 484.5,814.164 485,792.5C 485.717,793.044 486.217,793.711 486.5,794.5 Z"/></g>
<g><path style="opacity:1" fill="#000000" d="M 609.5,870.5 C 609.5,871.5 609.5,872.5 609.5,873.5C 611.099,873.232 612.432,873.566 613.5,874.5C 611.833,874.5 610.167,874.5 608.5,874.5C 608.232,872.901 608.566,871.568 609.5,870.5 Z"/></g>
<g><path style="opacity:1" fill="#F4F0E8" d="M 434.5,915.5 C 430.498,917.61 426.165,918.943 421.5,919.5C 425.502,917.39 429.835,916.057 434.5,915.5 Z"/></g>
<g><path style="opacity:1" fill="#F4F0E8" d="M 471.5,904.5 C 472.209,903.596 473.209,903.263 474.5,903.5C 474.5,911.167 474.5,918.833 474.5,926.5C 474.152,918.943 473.152,911.61 471.5,904.5 Z"/></g>
<g><path style="opacity:1" fill="#000000" d="M 699.5,907.5 C 700.376,907.369 701.043,907.702 701.5,908.5C 690.75,947.446 674.417,983.78 652.5,1017.5C 651.417,1016.64 651.251,1015.64 652,1014.5C 669.496,979.514 685.329,943.847 699.5,907.5 Z"/></g>
<g><path style="opacity:1" fill="#000000" d="M 256.5,908.5 C 263.783,912.48 270.783,916.98 277.5,922C 380.553,998.053 483.886,1073.72 587.5,1149C 594.671,1154.67 601.671,1160.51 608.5,1166.5C 607.635,1167.58 606.635,1167.75 605.5,1167C 522.129,1108.98 439.463,1049.98 357.5,990C 324.306,965.811 291.973,940.478 260.5,914C 258.536,912.549 257.203,910.716 256.5,908.5 Z"/></g>
<g><path style="opacity:1" fill="#000000" d="M 429.5,1103.5 C 433.878,1092.55 433.378,1081.88 428,1071.5C 418,1059.5 408,1059.5 398,1071.5C 392.53,1081.22 392.03,1091.22 396.5,1101.5C 396.167,1102.17 395.833,1102.83 395.5,1103.5C 394.265,1102.66 393.265,1101.66 392.5,1100.5C 386.869,1086.19 389.536,1073.69 400.5,1063C 419.343,1055.51 431.176,1061.67 436,1081.5C 436.739,1088.88 435.405,1095.88 432,1102.5C 431.329,1103.25 430.496,1103.59 429.5,1103.5 Z"/></g>
<g><path style="opacity:1" fill="#000000" d="M 840.5,1059.5 C 859.812,1061.33 868.312,1072 866,1091.5C 866.037,1096.42 864.203,1100.42 860.5,1103.5C 860.167,1103 859.833,1102.5 859.5,1102C 864.967,1088.94 862.967,1077.27 853.5,1067C 840.861,1061.06 831.695,1064.56 826,1077.5C 824.01,1086.11 824.51,1094.61 827.5,1103C 827.15,1104.26 826.483,1104.59 825.5,1104C 817.832,1090.02 819.165,1077.02 829.5,1065C 832.99,1062.59 836.657,1060.75 840.5,1059.5 Z"/></g>
<g><path style="opacity:1" fill="#F4F0E8" d="M 429.5,1103.5 C 428.778,1103.08 428.278,1102.42 428,1101.5C 426.868,1103.34 426.035,1105.34 425.5,1107.5C 425.539,1131.01 425.706,1154.68 426,1178.5C 425.467,1180.94 424.3,1181.61 422.5,1180.5C 422.192,1148.32 422.525,1116.15 423.5,1084C 422.433,1074.93 417.433,1071.26 408.5,1073C 406.083,1074.66 404.25,1076.83 403,1079.5C 403.424,1112.15 403.591,1144.82 403.5,1177.5C 402.25,1177.58 401.417,1178.24 401,1179.5C 400.667,1179.17 400.333,1178.83 400,1178.5C 399.667,1153.83 399.333,1129.17 399,1104.5C 398.193,1100.55 397.693,1100.55 397.5,1104.5C 395.856,1104.29 394.356,1104.62 393,1105.5C 392.506,1103.87 392.34,1102.2 392.5,1100.5C 393.265,1101.66 394.265,1102.66 395.5,1103.5C 395.833,1102.83 396.167,1102.17 396.5,1101.5C 392.03,1091.22 392.53,1081.22 398,1071.5C 408,1059.5 418,1059.5 428,1071.5C 433.378,1081.88 433.878,1092.55 429.5,1103.5 Z"/></g>
<g><path style="opacity:1" fill="#000000" d="M 839.5,1073.5 C 845.59,1072.14 850.09,1074.14 853,1079.5C 853.667,1113.17 853.667,1146.83 853,1180.5C 851.829,1181.89 850.329,1182.73 848.5,1183C 844.981,1183.38 841.481,1183.88 838,1184.5C 836.893,1184.41 835.893,1184.08 835,1183.5C 834.58,1148.82 834.246,1114.15 834,1079.5C 835.36,1076.98 837.193,1074.98 839.5,1073.5 Z"/></g>
<g><path style="opacity:1" fill="#000000" d="M 422.5,1180.5 C 421.406,1181.58 420.073,1182.25 418.5,1182.5C 413.828,1181.5 409.162,1180.5 404.5,1179.5C 404.137,1178.82 403.804,1178.15 403.5,1177.5C 403.591,1144.82 403.424,1112.15 403,1079.5C 404.25,1076.83 406.083,1074.66 408.5,1073C 417.433,1071.26 422.433,1074.93 423.5,1084C 422.525,1116.15 422.192,1148.32 422.5,1180.5 Z"/></g>
<g><path style="opacity:1" fill="#000000" d="M 995.5,908.5 C 996.376,908.369 997.043,908.702 997.5,909.5C 996.352,911.149 995.019,912.649 993.5,914C 962.122,939.713 930.455,965.047 898.5,990C 833.32,1039.09 768.32,1088.42 703.5,1138C 689.514,1148.33 675.181,1158.16 660.5,1167.5C 660.167,1167.17 659.833,1166.83 659.5,1166.5C 671.277,1156.44 683.277,1146.6 695.5,1137C 795.116,1060.2 895.116,984.036 995.5,908.5 Z"/></g>
</svg>
