<svg xmlns="http://www.w3.org/2000/svg" viewBox="0 0 120 120">
  <path fill="#181817" d="M14 11.4 C41 10.9 79 10.9 106 11.4 C109.2 11.7 109.4 14.1 106.1 14.8 C79 17.2 41 17.2 14 14.8 C10.7 14.1 10.8 11.8 14 11.4 Z"/>
  <path fill="#181817" d="M108.6 14 C109.1 41 109.1 79 108.6 106 C108.2 109.3 105.9 109.4 105.2 106.1 C102.8 79 102.8 41 105.2 14 C105.9 10.8 108.2 10.8 108.6 14 Z"/>
  <path fill="#181817" d="M106 108.6 C79 109.1 41 109.1 14 108.6 C10.8 108.2 10.7 105.9 13.9 105.2 C41 102.8 79 102.8 106 105.2 C109.3 105.9 109.2 108.2 106 108.6 Z"/>
  <path fill="#181817" d="M11.4 106 C10.9 79 10.9 41 11.4 14 C11.8 10.7 14.1 10.8 14.8 14 C17.2 41 17.2 79 14.8 106 C14.1 109.4 11.7 109.2 11.4 106 Z"/>
</svg>
