<svg xmlns="http://www.w3.org/2000/svg" viewBox="0 0 120 120">
  <path fill="#181817" d="M14 9.8 C39 8.8 81 9.1 106 10.1 C112.1 10.7 113.2 14.5 106.7 16.3 C80 21.6 42 21.3 13.3 16.1 C7 14.2 8.1 10.5 14 9.8 Z"/>
  <path fill="#181817" d="M110.2 14 C111.2 39 110.9 81 109.9 106 C109.3 112.1 105.5 113.2 103.7 106.7 C98.4 80 98.7 42 103.9 13.3 C105.8 7 109.5 8.1 110.2 14 Z"/>
  <path fill="#181817" d="M106 110.2 C81 111.2 39 110.9 14 109.9 C7.9 109.3 6.8 105.5 13.3 103.7 C42 98.4 80 98.7 106.7 103.9 C113 105.8 111.9 109.5 106 110.2 Z"/>
  <path fill="#181817" d="M9.8 106 C8.8 81 9.1 39 10.1 14 C10.7 7.9 14.5 6.8 16.3 13.3 C21.6 42 21.3 80 16.1 106.7 C14.2 113 10.5 111.9 9.8 106 Z"/>
</svg>
