<svg xmlns="http://www.w3.org/2000/svg" viewBox="0 0 1200 800" role="img" aria-labelledby="title">
  <title>Sunset walk memo cover</title>
  <defs>
    <linearGradient id="sunset" x1="0" x2="0" y1="0" y2="1">
      <stop offset="0%" stop-color="#f4b58a" />
      <stop offset="46%" stop-color="#f7d1b0" />
      <stop offset="100%" stop-color="#efe8df" />
    </linearGradient>
  </defs>
  <rect width="1200" height="800" fill="url(#sunset)" />
  <circle cx="840" cy="242" r="118" fill="#f4b37e" opacity=".92" />
  <path d="M0 588c102-26 201-18 292 20c96 40 180 42 279 7c95-34 172-33 267 11c110 51 223 55 362 2V800H0z" fill="#4d5d65" />
  <path d="M0 644c90-18 178-8 268 28c92 36 176 37 258 10c103-34 183-31 282 12c125 53 242 56 392-6V800H0z" fill="#12395b" />
  <path d="M196 660l84-128l52 76l63-92l60 102l58-82l86 124z" fill="#d7c7b5" opacity=".5" />
  <text x="96" y="132" fill="#12395b" font-family="Iowan Old Style, Baskerville, Georgia, serif" font-size="56">Sunset walk after a long week</text>
  <text x="98" y="190" fill="#5e5a55" font-family="LXGW WenKai, Georgia, serif" font-size="28">Griffith Park • cooler light • less noise in my head</text>
</svg>
